HIERARCHY
ROOT joint_Root
{
	OFFSET 0.0 0.0 0.0
	CHANNELS 6 Xposition Yposition Zposition Zrotation Xrotation Yrotation 
	JOINT Hips
	{
		OFFSET -0.726466 93.3139 -2.00062
		CHANNELS 6 Xposition Yposition Zposition Zrotation Xrotation Yrotation 
		JOINT Spine
		{
			OFFSET 15.7357 0.0 0.0
			CHANNELS 6 Xposition Yposition Zposition Zrotation Xrotation Yrotation 
			JOINT Chest
			{
				OFFSET 8.98455 -0.406207 0.0
				CHANNELS 6 Xposition Yposition Zposition Zrotation Xrotation Yrotation 
				JOINT Neck
				{
					OFFSET 16.3773 0.0 0.0
					CHANNELS 6 Xposition Yposition Zposition Zrotation Xrotation Yrotation 
					JOINT Head
					{
						OFFSET 6.45672 0.0 0.0
						CHANNELS 6 Xposition Yposition Zposition Zrotation Xrotation Yrotation 
						End Site
						{
							OFFSET 0.0 0.0 0.0
						}
					}
				}
				JOINT Shoulder_L
				{
					OFFSET 12.9942 -0.242716 4.98039
					CHANNELS 6 Xposition Yposition Zposition Zrotation Xrotation Yrotation 
					JOINT UpperArm_L
					{
						OFFSET 5.34809 0.0 0.0
						CHANNELS 6 Xposition Yposition Zposition Zrotation Xrotation Yrotation 
						JOINT LowerArm_L
						{
							OFFSET 24.3286 1.87007e-05 0.0
							CHANNELS 6 Xposition Yposition Zposition Zrotation Xrotation Yrotation 
							JOINT Hand_L
							{
								OFFSET 22.2916 0.0 0.0
								CHANNELS 6 Xposition Yposition Zposition Zrotation Xrotation Yrotation 
								End Site
								{
									OFFSET 0.0 0.0 0.0
								}
							}
						}
					}
				}
				JOINT Shoulder_R
				{
					OFFSET 12.9945 -0.242716 -4.98039
					CHANNELS 6 Xposition Yposition Zposition Zrotation Xrotation Yrotation 
					JOINT UpperArm_R
					{
						OFFSET -5.34813 0.0 0.0
						CHANNELS 6 Xposition Yposition Zposition Zrotation Xrotation Yrotation 
						JOINT LowerArm_R
						{
							OFFSET -24.3289 0.000322201 0.0
							CHANNELS 6 Xposition Yposition Zposition Zrotation Xrotation Yrotation 
							JOINT Hand_R
							{
								OFFSET -22.2915 -0.000108084 0.0
								CHANNELS 6 Xposition Yposition Zposition Zrotation Xrotation Yrotation 
								End Site
								{
									OFFSET 0.0 0.0 0.0
								}
							}
						}
					}
				}
			}
		}
		JOINT UpperLeg_L
		{
			OFFSET -2.19248 -6.46944 0.0
			CHANNELS 6 Xposition Yposition Zposition Zrotation Xrotation Yrotation 
			JOINT LowerLeg_L
			{
				OFFSET 39.0811 0.0 -1.23785e-05
				CHANNELS 6 Xposition Yposition Zposition Zrotation Xrotation Yrotation 
				JOINT Foot_L
				{
					OFFSET 40.9854 0.0 -1.26872e-05
					CHANNELS 6 Xposition Yposition Zposition Zrotation Xrotation Yrotation 
					JOINT Toes_L
					{
						OFFSET 11.7543 0.0 0.0
						CHANNELS 6 Xposition Yposition Zposition Zrotation Xrotation Yrotation 
						End Site
						{
							OFFSET 0.0 0.0 0.0
						}
					}
				}
			}
		}
		JOINT UpperLeg_R
		{
			OFFSET -2.19251 6.46944 0.0
			CHANNELS 6 Xposition Yposition Zposition Zrotation Xrotation Yrotation 
			JOINT LowerLeg_R
			{
				OFFSET -39.0811 -0.00228153 -0.0401928
				CHANNELS 6 Xposition Yposition Zposition Zrotation Xrotation Yrotation 
				JOINT Foot_R
				{
					OFFSET -40.9854 0.0 0.0
					CHANNELS 6 Xposition Yposition Zposition Zrotation Xrotation Yrotation 
					JOINT Toes_R
					{
						OFFSET -11.7543 0.0 0.0
						CHANNELS 6 Xposition Yposition Zposition Zrotation Xrotation Yrotation 
						End Site
						{
							OFFSET 0.0 0.0 0.0
						}
					}
				}
			}
		}
	}
}
MOTION
Frames:	5
Frame Time:	0.0333333
0.000000 0.000000 0.000000 0.000000 0.000000 -0.000000 -1.052790 92.558100 -2.087320 87.981200 -1.093130 2.568410 15.735700 0.000005 -0.000001 86.375500 85.741800 -86.121000 8.984550 -0.406207 -0.000000 0.734728 -0.553809 0.512097 16.377300 -0.000001 -0.000001 2.812670 -1.751570 0.272707 6.456720 -0.000001 -0.000000 1.283620 -0.352709 -0.002782 12.994200 -0.242716 4.980390 -90.097700 0.314215 -72.736900 5.348090 -0.000007 -0.000001 -67.324700 37.731200 -14.681500 24.328600 0.000019 0.000005 2.253490 5.284730 -23.132700 22.291600 -0.000001 0.000005 4.414980 5.481430 -5.799680 12.994500 -0.242716 -4.980390 87.699300 6.777350 -71.199300 -5.348130 -0.000001 -0.000004 -65.205300 39.869300 -15.500100 -24.328900 0.000322 -0.000009 2.957700 9.133650 -18.035100 -22.291500 -0.000108 -0.000004 7.378230 5.387990 -2.549270 -2.192480 -6.469440 -0.000000 -175.479000 -6.404020 -4.613720 39.081100 -0.000007 -0.000012 -0.097138 0.242766 21.807800 40.985400 -0.000006 -0.000013 -0.548157 3.068330 -64.797200 11.754300 -0.000000 0.000003 -0.000028 -0.000338 -16.590800 -2.192510 6.469440 -0.000001 -179.460000 12.857100 177.581000 -39.081100 -0.002282 -0.040193 -0.038007 0.123975 18.437700 -40.985400 0.000008 0.000006 3.104110 7.510510 -63.991200 -11.754300 -0.000006 -0.000006 -0.007489 -0.083810 -19.985400
0.000000 0.000000 0.000000 0.000000 0.000000 -0.000000 -1.066280 92.553700 -2.093310 87.998700 -1.019450 2.687530 15.735700 0.000005 -0.000001 86.360200 85.720000 -86.119900 8.984550 -0.406207 -0.000000 0.777867 -0.557868 0.483965 16.377300 -0.000001 -0.000001 2.649470 -1.785190 0.328671 6.456720 -0.000001 -0.000000 1.293520 -0.365764 0.056698 12.994200 -0.242716 4.980390 -90.151300 0.488777 -72.805900 5.348090 -0.000007 -0.000001 -66.742400 36.329900 -14.940500 24.328600 0.000019 0.000005 2.590650 5.542090 -25.102100 22.291600 -0.000001 0.000005 2.872670 5.471390 -5.419700 12.994500 -0.242716 -4.980390 87.707600 6.749400 -71.190700 -5.348130 -0.000001 -0.000004 -64.396300 40.040600 -15.929200 -24.328900 0.000322 -0.000009 3.355740 9.393790 -19.764900 -22.291500 -0.000108 -0.000004 5.969220 5.375270 -2.145900 -2.192480 -6.469440 -0.000000 -175.470000 -6.389510 -4.509600 39.081100 -0.000007 -0.000012 -0.098906 0.246989 21.823600 40.985400 -0.000006 -0.000013 -0.545707 3.126490 -64.801100 11.754300 -0.000000 0.000003 -0.000036 -0.000423 -16.594000 -2.192510 6.469440 -0.000001 -179.495000 12.912600 177.686000 -39.081100 -0.002282 -0.040193 -0.037584 0.122300 18.494500 -40.985400 0.000008 0.000006 3.160990 7.467960 -64.040600 -11.754300 -0.000006 -0.000006 -0.007955 -0.087661 -20.142700
0.000000 0.000000 0.000000 0.000000 0.000000 -0.000000 -1.091610 92.536200 -2.110360 87.991600 -0.891993 2.812590 15.735700 0.000005 -0.000001 86.310400 85.694200 -86.082600 8.984550 -0.406207 -0.000000 0.828856 -0.567740 0.459391 16.377300 -0.000001 -0.000001 2.514770 -1.823120 0.354267 6.456720 -0.000001 -0.000000 1.183350 -0.453212 0.204040 12.994200 -0.242716 4.980390 -90.200100 0.642314 -72.696800 5.348090 -0.000007 -0.000001 -65.117300 34.650500 -16.334100 24.328600 0.000019 0.000005 3.327120 6.265480 -28.033800 22.291600 -0.000001 0.000005 2.057130 5.463970 -5.146240 12.994500 -0.242716 -4.980390 87.690000 6.757580 -71.077400 -5.348130 -0.000001 -0.000004 -63.054700 39.246900 -16.643500 -24.328900 0.000322 -0.000009 4.736590 10.974800 -23.517700 -22.291500 -0.000108 -0.000004 3.354460 5.337910 -1.004480 -2.192480 -6.469440 -0.000000 -175.448000 -6.201970 -4.494780 39.081100 -0.000007 -0.000012 -0.098726 0.244710 21.971300 40.985400 -0.000006 -0.000013 -0.565336 3.086250 -64.848000 11.754300 -0.000000 0.000003 -0.000029 -0.000348 -16.591200 -2.192510 6.469440 -0.000001 -179.521000 13.061800 177.761000 -39.081100 -0.002282 -0.040193 -0.041053 0.131943 18.589400 -40.985400 0.000008 0.000006 2.980740 7.480570 -64.054100 -11.754300 -0.000006 -0.000006 -0.007669 -0.085308 -20.046600
0.000000 0.000000 0.000000 0.000000 0.000000 -0.000000 -1.137750 92.551000 -2.222370 87.990300 -0.733893 2.934650 15.735700 0.000005 -0.000001 86.255300 85.674100 -86.036000 8.984550 -0.406207 -0.000000 0.868520 -0.578037 0.442666 16.377300 -0.000001 -0.000001 2.510620 -1.864940 0.359551 6.456720 -0.000001 -0.000000 0.951709 -0.540582 0.288550 12.994200 -0.242716 4.980390 -90.238000 0.759316 -72.598400 5.348090 -0.000007 -0.000001 -62.577200 32.263400 -18.669200 24.328600 0.000019 0.000005 4.906060 7.740850 -32.498300 22.291600 -0.000001 0.000005 2.777940 5.475030 -5.557110 12.994500 -0.242716 -4.980390 87.614400 6.851990 -70.751400 -5.348130 -0.000001 -0.000004 -60.522200 37.840900 -18.363100 -24.328900 0.000322 -0.000009 6.875970 12.535300 -29.055300 -22.291500 -0.000108 -0.000004 1.987220 5.325980 -0.668377 -2.192480 -6.469440 -0.000000 -175.402000 -6.220660 -4.435360 39.081100 -0.000007 -0.000012 -0.098235 0.244263 21.908500 40.985400 -0.000006 -0.000013 -0.560895 3.252540 -64.727700 11.754300 -0.000000 0.000003 -0.000030 -0.000359 -16.591600 -2.192510 6.469440 -0.000001 -179.449000 13.089900 177.812000 -39.081100 -0.002282 -0.040193 -0.033215 0.108556 18.602800 -40.985400 0.000008 0.000006 3.374170 7.305590 -64.062500 -11.754300 -0.000006 -0.000006 -0.007776 -0.086190 -20.082600
0.000000 0.000000 0.000000 0.000000 0.000000 -0.000000 -1.166210 92.535900 -2.366190 88.041400 -0.579427 3.043800 15.735700 0.000005 -0.000001 85.560700 85.680100 -85.353100 8.984550 -0.406207 -0.000000 0.849252 -0.681025 0.420036 16.377300 -0.000001 -0.000001 2.639400 -1.890120 0.363420 6.456720 -0.000001 -0.000000 0.802222 -0.418894 0.260864 12.994200 -0.242716 4.980390 -90.244800 0.780993 -72.596700 5.348090 -0.000007 -0.000001 -59.762400 28.525200 -21.282200 24.328600 0.000019 0.000005 6.349050 7.979410 -38.712400 22.291600 -0.000001 0.000005 4.276210 5.498290 -6.453590 12.994500 -0.242716 -4.980390 87.565000 6.881120 -70.458900 -5.348130 -0.000001 -0.000004 -57.264600 35.229600 -21.102300 -24.328900 0.000322 -0.000009 8.749920 12.388000 -35.659200 -22.291500 -0.000108 -0.000004 2.822150 5.331520 -0.829245 -2.192480 -6.469440 -0.000000 -175.436000 -6.082280 -4.535550 39.081100 -0.000007 -0.000012 -0.098289 0.242643 22.051700 40.985400 -0.000006 -0.000013 -0.569714 3.286920 -64.672400 11.754300 -0.000000 0.000003 -0.000032 -0.000379 -16.592400 -2.192510 6.469440 -0.000001 -179.526000 13.208500 177.740000 -39.081100 -0.002282 -0.040193 -0.040668 0.129419 18.773600 -40.985400 0.000008 0.000006 3.051230 7.319140 -64.002000 -11.754300 -0.000006 -0.000006 -0.007463 -0.083593 -19.976600
